<?xml version="1.0" standalone="no"?><!DOCTYPE svg PUBLIC "-//W3C//DTD SVG 1.1//EN" "http://www.w3.org/Graphics/SVG/1.1/DTD/svg11.dtd"><svg t="1573721945347" class="icon" viewBox="0 0 1024 1024" version="1.1" xmlns="http://www.w3.org/2000/svg" p-id="11832" xmlns:xlink="http://www.w3.org/1999/xlink" width="200" height="200"><defs><style type="text/css"></style></defs><path d="M935.936 863.744H88.064V396.8c0-21.504 17.408-38.912 38.912-38.912h158.72l197.632-185.856c14.848-14.336 38.4-14.336 53.248 0l196.096 185.856h164.352c21.504 0 38.912 17.408 38.912 38.912v466.944z m-786.432-61.44h725.504V419.328H727.04c-11.776 0-23.552-4.608-32.256-12.8L509.952 230.912 323.584 406.528c-8.704 8.192-19.968 12.8-31.744 12.8H149.504v382.976z" fill="#2c2c2c" p-id="11833"></path><path d="M481.28 221.184h61.44v593.92H481.28zM276.48 375.296h61.44v439.808H276.48zM686.08 375.296h61.44v439.808h-61.44z" fill="#2c2c2c" p-id="11834"></path></svg>