<?xml version="1.0" standalone="no"?><!DOCTYPE svg PUBLIC "-//W3C//DTD SVG 1.1//EN" "http://www.w3.org/Graphics/SVG/1.1/DTD/svg11.dtd"><svg t="1573722065128" class="icon" viewBox="0 0 1024 1024" version="1.1" xmlns="http://www.w3.org/2000/svg" p-id="14051" xmlns:xlink="http://www.w3.org/1999/xlink" width="200" height="200"><defs><style type="text/css"></style></defs><path d="M236.544 147.456h17.92v179.2c0 45.056 36.864 81.92 81.92 81.92h335.872c45.056 0 81.92-36.864 81.92-81.92v-179.2h25.088l123.392 147.968v512.512c0 59.904-49.152 109.056-109.056 109.056H236.544c-59.904 0-109.056-49.152-109.056-109.056V257.024c0-60.416 49.152-109.568 109.056-109.568z m98.304 38.4v144.896h98.304V185.856H334.848zM197.12 783.872v51.712h51.712v-51.712H197.12z m577.536 0v51.712h51.712v-51.712h-51.712z" fill="#231815" p-id="14052"></path></svg>