<?xml version="1.0" standalone="no"?><!DOCTYPE svg PUBLIC "-//W3C//DTD SVG 1.1//EN" "http://www.w3.org/Graphics/SVG/1.1/DTD/svg11.dtd"><svg t="1573721799932" class="icon" viewBox="0 0 1024 1024" version="1.1" xmlns="http://www.w3.org/2000/svg" p-id="6865" xmlns:xlink="http://www.w3.org/1999/xlink" width="200" height="200"><defs><style type="text/css"></style></defs><path d="M920 880h-816c-26.464 0-48-21.536-48-48V192c0-26.464 21.536-48 48-48h816c26.464 0 48 21.536 48 48v640c0 26.464-21.536 48-48 48z m-816-720c-17.648 0-32 14.352-32 32v640c0 17.648 14.352 32 32 32h816c17.648 0 32-14.352 32-32V192c0-17.648-14.352-32-32-32h-816z" fill="#2c2c2c" p-id="6866"></path><path d="M448 776H160a16 16 0 0 1-16-16v-496a16 16 0 0 1 16-16h288a16 16 0 0 1 16 16v496a16 16 0 0 1-16 16z" fill="#2c2c2c" p-id="6867"></path><path d="M448 784H160c-13.232 0-24-10.768-24-24v-496c0-13.232 10.768-24 24-24h288c13.232 0 24 10.768 24 24v496c0 13.232-10.768 24-24 24zM160 256a8 8 0 0 0-8 8v496a8 8 0 0 0 8 8h288a8 8 0 0 0 8-8v-496a8 8 0 0 0-8-8H160zM864 584H576c-13.232 0-24-10.768-24-24V272c0-13.232 10.768-24 24-24h288c13.232 0 24 10.768 24 24v288c0 13.232-10.768 24-24 24z m-288-320a8 8 0 0 0-8 8v288a8 8 0 0 0 8 8h288a8 8 0 0 0 8-8V272a8 8 0 0 0-8-8H576z" fill="#2c2c2c" p-id="6868"></path><path d="M864 776H576a16 16 0 0 1-16-16v-80a16 16 0 0 1 16-16h288a16 16 0 0 1 16 16v80a16 16 0 0 1-16 16z" fill="#2c2c2c" p-id="6869"></path><path d="M864 784H576c-13.232 0-24-10.768-24-24v-80c0-13.232 10.768-24 24-24h288c13.232 0 24 10.768 24 24v80c0 13.232-10.768 24-24 24z m-288-112a8 8 0 0 0-8 8v80a8 8 0 0 0 8 8h288a8 8 0 0 0 8-8v-80a8 8 0 0 0-8-8H576z" fill="#2c2c2c" p-id="6870"></path><path d="M720 416m-96 0a96 96 0 1 0 192 0 96 96 0 1 0-192 0Z" fill="#2c2c2c" p-id="6871"></path><path d="M720 520c-57.344 0-104-46.656-104-104s46.656-104 104-104 104 46.656 104 104-46.656 104-104 104z m0-192c-48.528 0-88 39.472-88 88s39.472 88 88 88 88-39.472 88-88-39.472-88-88-88zM198.672 442.672a8 8 0 0 1-5.312-13.984l72-64a7.952 7.952 0 0 1 10.512-0.096l50.368 43.168 74.768-74.752a8 8 0 0 1 11.312 11.312l-80 80a8.032 8.032 0 0 1-10.864 0.416l-50.704-43.456-66.784 59.36a7.92 7.92 0 0 1-5.296 2.032zM398.672 536h-192a8 8 0 0 1 0-16h192a8 8 0 0 1 0 16zM398.672 616h-192a8 8 0 0 1 0-16h192a8 8 0 0 1 0 16zM398.672 696h-192a8 8 0 0 1 0-16h192a8 8 0 0 1 0 16z" fill="#2c2c2c" p-id="6872"></path><path d="M816 424h-96a8 8 0 0 1-8-8v-96a8 8 0 0 1 16 0v88H816a8 8 0 0 1 0 16zM224 952h-16a8 8 0 0 1 0-16h16a8 8 0 0 1 0 16z" fill="#2c2c2c" p-id="6873"></path><path d="M496 952H256a8 8 0 0 1 0-16h240a8 8 0 0 1 0 16z" fill="#2c2c2c" p-id="6874"></path><path d="M816 88h-16a8 8 0 0 1 0-16h16a8 8 0 0 1 0 16z" fill="#2c2c2c" p-id="6875"></path><path d="M768 88H528a8 8 0 0 1 0-16h240a8 8 0 0 1 0 16z" fill="#2c2c2c" p-id="6876"></path></svg>